<mxfile host="app.diagrams.net" agent="Mozilla/5.0 (Macintosh; Intel Mac OS X 10_15_7) AppleWebKit/537.36 (KHTML, like Gecko) Chrome/129.0.0.0 Safari/537.36" version="24.7.17">
  <diagram name="Page-1" id="5w6YOpGTzONQXnQhQidN">
    <mxGraphModel grid="1" page="1" gridSize="10" guides="1" tooltips="1" connect="1" arrows="1" fold="1" pageScale="1" pageWidth="850" pageHeight="1100" math="0" shadow="0">
      <root>
        <mxCell id="0" />
        <mxCell id="1" parent="0" />
        <mxCell id="AeUnnbuYNQwcfc2Jq3Y8-59" style="edgeStyle=orthogonalEdgeStyle;rounded=0;orthogonalLoop=1;jettySize=auto;html=1;exitX=0.5;exitY=1;exitDx=0;exitDy=0;entryX=0.5;entryY=0;entryDx=0;entryDy=0;" edge="1" parent="1" source="UhGnseYafk5A4zhblU-_-9" target="AeUnnbuYNQwcfc2Jq3Y8-26">
          <mxGeometry relative="1" as="geometry" />
        </mxCell>
        <mxCell id="UhGnseYafk5A4zhblU-_-9" value="" style="rounded=1;whiteSpace=wrap;html=1;dashed=1;" vertex="1" parent="1">
          <mxGeometry x="1110" y="330" width="90" height="100" as="geometry" />
        </mxCell>
        <mxCell id="UhGnseYafk5A4zhblU-_-4" value="" style="sketch=0;aspect=fixed;pointerEvents=1;shadow=0;dashed=0;html=1;strokeColor=none;labelPosition=center;verticalLabelPosition=bottom;verticalAlign=top;align=center;fillColor=#00188D;shape=mxgraph.mscae.enterprise.server_farm" vertex="1" parent="1">
          <mxGeometry x="1118.86" y="343.75" width="72.27" height="46.25" as="geometry" />
        </mxCell>
        <mxCell id="UhGnseYafk5A4zhblU-_-10" value="Notification&lt;div&gt;servers&lt;/div&gt;" style="text;html=1;align=center;verticalAlign=middle;resizable=0;points=[];autosize=1;strokeColor=none;fillColor=none;" vertex="1" parent="1">
          <mxGeometry x="1114.99" y="390" width="80" height="40" as="geometry" />
        </mxCell>
        <mxCell id="AeUnnbuYNQwcfc2Jq3Y8-1" style="edgeStyle=orthogonalEdgeStyle;rounded=0;orthogonalLoop=1;jettySize=auto;html=1;exitX=1;exitY=0.51;exitDx=0;exitDy=0;exitPerimeter=0;entryX=0;entryY=0.5;entryDx=0;entryDy=0;" edge="1" parent="1" source="UhGnseYafk5A4zhblU-_-11" target="UhGnseYafk5A4zhblU-_-50">
          <mxGeometry relative="1" as="geometry">
            <mxPoint x="1490" y="180" as="targetPoint" />
          </mxGeometry>
        </mxCell>
        <mxCell id="UhGnseYafk5A4zhblU-_-11" value="iOS queue" style="verticalLabelPosition=bottom;html=1;verticalAlign=top;align=center;strokeColor=none;fillColor=#00BEF2;shape=mxgraph.azure.queue_generic;pointerEvents=1;" vertex="1" parent="1">
          <mxGeometry x="1320" y="162" width="120" height="36" as="geometry" />
        </mxCell>
        <mxCell id="UhGnseYafk5A4zhblU-_-14" value="" style="rounded=1;whiteSpace=wrap;html=1;dashed=1;" vertex="1" parent="1">
          <mxGeometry x="1650" y="140" width="140" height="620" as="geometry" />
        </mxCell>
        <mxCell id="UhGnseYafk5A4zhblU-_-15" value="" style="edgeStyle=orthogonalEdgeStyle;rounded=0;orthogonalLoop=1;jettySize=auto;html=1;" edge="1" parent="1" target="UhGnseYafk5A4zhblU-_-17">
          <mxGeometry relative="1" as="geometry">
            <mxPoint x="1790.87" y="180" as="sourcePoint" />
          </mxGeometry>
        </mxCell>
        <mxCell id="UhGnseYafk5A4zhblU-_-16" value="" style="verticalLabelPosition=bottom;html=1;verticalAlign=top;align=center;strokeColor=default;fillColor=default;shape=mxgraph.azure.cloud;fillStyle=solid;strokeWidth=5;" vertex="1" parent="1">
          <mxGeometry x="1680.87" y="153.43" width="75" height="53.13" as="geometry" />
        </mxCell>
        <mxCell id="UhGnseYafk5A4zhblU-_-17" value="" style="sketch=0;pointerEvents=1;shadow=0;dashed=0;html=1;strokeColor=none;fillColor=#000000;labelPosition=center;verticalLabelPosition=bottom;verticalAlign=top;outlineConnect=0;align=center;shape=mxgraph.office.devices.cell_phone_iphone_standalone;" vertex="1" parent="1">
          <mxGeometry x="1850.87" y="151.21" width="35" height="57.57" as="geometry" />
        </mxCell>
        <mxCell id="UhGnseYafk5A4zhblU-_-18" value="APNs" style="text;html=1;align=center;verticalAlign=middle;resizable=0;points=[];autosize=1;strokeColor=none;fillColor=none;" vertex="1" parent="1">
          <mxGeometry x="1693.37" y="208.78" width="50" height="30" as="geometry" />
        </mxCell>
        <mxCell id="UhGnseYafk5A4zhblU-_-19" value="iOS" style="text;html=1;align=center;verticalAlign=middle;resizable=0;points=[];autosize=1;strokeColor=none;fillColor=none;" vertex="1" parent="1">
          <mxGeometry x="1848.37" y="208.78" width="40" height="30" as="geometry" />
        </mxCell>
        <mxCell id="UhGnseYafk5A4zhblU-_-20" value="" style="edgeStyle=orthogonalEdgeStyle;rounded=0;orthogonalLoop=1;jettySize=auto;html=1;" edge="1" parent="1" target="UhGnseYafk5A4zhblU-_-21">
          <mxGeometry relative="1" as="geometry">
            <mxPoint x="1790.87" y="330" as="sourcePoint" />
            <Array as="points">
              <mxPoint x="1790.87" y="330" />
            </Array>
          </mxGeometry>
        </mxCell>
        <mxCell id="UhGnseYafk5A4zhblU-_-21" value="" style="sketch=0;pointerEvents=1;shadow=0;dashed=0;html=1;strokeColor=none;fillColor=#000000;labelPosition=center;verticalLabelPosition=bottom;verticalAlign=top;outlineConnect=0;align=center;shape=mxgraph.office.devices.cell_phone_iphone_standalone;" vertex="1" parent="1">
          <mxGeometry x="1850.87" y="300.34000000000003" width="35" height="57.57" as="geometry" />
        </mxCell>
        <mxCell id="UhGnseYafk5A4zhblU-_-22" value="FCM" style="text;html=1;align=center;verticalAlign=middle;resizable=0;points=[];autosize=1;strokeColor=none;fillColor=none;" vertex="1" parent="1">
          <mxGeometry x="1695.01" y="353.25" width="50" height="30" as="geometry" />
        </mxCell>
        <mxCell id="UhGnseYafk5A4zhblU-_-23" value="Android" style="text;html=1;align=center;verticalAlign=middle;resizable=0;points=[];autosize=1;strokeColor=none;fillColor=none;" vertex="1" parent="1">
          <mxGeometry x="1838.37" y="361.21" width="60" height="30" as="geometry" />
        </mxCell>
        <mxCell id="UhGnseYafk5A4zhblU-_-24" value="" style="shape=image;html=1;verticalAlign=top;verticalLabelPosition=bottom;labelBackgroundColor=#ffffff;imageAspect=0;aspect=fixed;image=https://cdn1.iconfinder.com/data/icons/ionicons-fill-vol-2/512/logo-firebase-128.png" vertex="1" parent="1">
          <mxGeometry x="1680.8799999999999" y="279.66" width="78.25" height="78.25" as="geometry" />
        </mxCell>
        <mxCell id="UhGnseYafk5A4zhblU-_-25" value="" style="edgeStyle=orthogonalEdgeStyle;rounded=0;orthogonalLoop=1;jettySize=auto;html=1;" edge="1" parent="1" target="UhGnseYafk5A4zhblU-_-26">
          <mxGeometry relative="1" as="geometry">
            <mxPoint x="1790.87" y="470" as="sourcePoint" />
            <Array as="points">
              <mxPoint x="1790.87" y="470" />
            </Array>
          </mxGeometry>
        </mxCell>
        <mxCell id="UhGnseYafk5A4zhblU-_-26" value="" style="sketch=0;pointerEvents=1;shadow=0;dashed=0;html=1;strokeColor=none;fillColor=#000000;labelPosition=center;verticalLabelPosition=bottom;verticalAlign=top;outlineConnect=0;align=center;shape=mxgraph.office.devices.cell_phone_iphone_standalone;" vertex="1" parent="1">
          <mxGeometry x="1850.87" y="440.00000000000006" width="35" height="57.57" as="geometry" />
        </mxCell>
        <mxCell id="UhGnseYafk5A4zhblU-_-27" value="SMS&lt;div&gt;Service&lt;/div&gt;" style="text;html=1;align=center;verticalAlign=middle;resizable=0;points=[];autosize=1;strokeColor=none;fillColor=none;" vertex="1" parent="1">
          <mxGeometry x="1693.37" y="484.96999999999997" width="60" height="40" as="geometry" />
        </mxCell>
        <mxCell id="UhGnseYafk5A4zhblU-_-28" value="SMS" style="text;html=1;align=center;verticalAlign=middle;resizable=0;points=[];autosize=1;strokeColor=none;fillColor=none;" vertex="1" parent="1">
          <mxGeometry x="1843.37" y="497.57" width="50" height="30" as="geometry" />
        </mxCell>
        <mxCell id="UhGnseYafk5A4zhblU-_-29" value="" style="dashed=0;outlineConnect=0;html=1;align=center;labelPosition=center;verticalLabelPosition=bottom;verticalAlign=top;shape=mxgraph.webicons.sms;fillColor=#000000;gradientColor=#000000;" vertex="1" parent="1">
          <mxGeometry x="1695.01" y="430.00000000000006" width="52.4" height="52.4" as="geometry" />
        </mxCell>
        <mxCell id="UhGnseYafk5A4zhblU-_-30" value="" style="edgeStyle=orthogonalEdgeStyle;rounded=0;orthogonalLoop=1;jettySize=auto;html=1;" edge="1" parent="1">
          <mxGeometry relative="1" as="geometry">
            <mxPoint x="1790" y="598.5" as="sourcePoint" />
            <mxPoint x="1850" y="598.5" as="targetPoint" />
          </mxGeometry>
        </mxCell>
        <mxCell id="UhGnseYafk5A4zhblU-_-31" value="Email&lt;div&gt;Service&lt;/div&gt;" style="text;html=1;align=center;verticalAlign=middle;resizable=0;points=[];autosize=1;strokeColor=none;fillColor=none;" vertex="1" parent="1">
          <mxGeometry x="1690" y="630" width="60" height="40" as="geometry" />
        </mxCell>
        <mxCell id="UhGnseYafk5A4zhblU-_-32" value="Email" style="text;html=1;align=center;verticalAlign=middle;resizable=0;points=[];autosize=1;strokeColor=none;fillColor=none;" vertex="1" parent="1">
          <mxGeometry x="1845.87" y="612.75" width="50" height="30" as="geometry" />
        </mxCell>
        <mxCell id="UhGnseYafk5A4zhblU-_-33" value="" style="shape=image;html=1;verticalAlign=top;verticalLabelPosition=bottom;labelBackgroundColor=#ffffff;imageAspect=0;aspect=fixed;image=https://cdn3.iconfinder.com/data/icons/essential-rounded/66/Rounded-36-128.png" vertex="1" parent="1">
          <mxGeometry x="1691" y="571.03" width="58" height="58" as="geometry" />
        </mxCell>
        <mxCell id="UhGnseYafk5A4zhblU-_-34" value="" style="verticalLabelPosition=bottom;html=1;verticalAlign=top;align=center;strokeColor=none;fillColor=#000000;shape=mxgraph.azure.laptop;pointerEvents=1;" vertex="1" parent="1">
          <mxGeometry x="1848.37" y="586.28" width="40" height="27.5" as="geometry" />
        </mxCell>
        <mxCell id="UhGnseYafk5A4zhblU-_-35" value="Third Party&lt;div&gt;Services&lt;/div&gt;" style="text;html=1;align=center;verticalAlign=middle;resizable=0;points=[];autosize=1;strokeColor=none;fillColor=none;" vertex="1" parent="1">
          <mxGeometry x="1678.37" y="710" width="80" height="40" as="geometry" />
        </mxCell>
        <mxCell id="UhGnseYafk5A4zhblU-_-36" style="rounded=0;orthogonalLoop=1;jettySize=auto;html=1;exitX=1;exitY=0.5;exitDx=0;exitDy=0;" edge="1" parent="1" source="UhGnseYafk5A4zhblU-_-37">
          <mxGeometry relative="1" as="geometry">
            <mxPoint x="1110" y="350" as="targetPoint" />
          </mxGeometry>
        </mxCell>
        <mxCell id="UhGnseYafk5A4zhblU-_-37" value="Service 1" style="rounded=1;whiteSpace=wrap;html=1;" vertex="1" parent="1">
          <mxGeometry x="910" y="238.78" width="120" height="60" as="geometry" />
        </mxCell>
        <mxCell id="UhGnseYafk5A4zhblU-_-38" style="edgeStyle=orthogonalEdgeStyle;rounded=0;orthogonalLoop=1;jettySize=auto;html=1;exitX=1;exitY=0.5;exitDx=0;exitDy=0;entryX=0;entryY=0.5;entryDx=0;entryDy=0;" edge="1" parent="1" source="UhGnseYafk5A4zhblU-_-39" target="UhGnseYafk5A4zhblU-_-9">
          <mxGeometry relative="1" as="geometry">
            <mxPoint x="1090" y="390" as="targetPoint" />
          </mxGeometry>
        </mxCell>
        <mxCell id="UhGnseYafk5A4zhblU-_-39" value="Service 2" style="rounded=1;whiteSpace=wrap;html=1;" vertex="1" parent="1">
          <mxGeometry x="910" y="350" width="120" height="60" as="geometry" />
        </mxCell>
        <mxCell id="UhGnseYafk5A4zhblU-_-40" style="rounded=0;orthogonalLoop=1;jettySize=auto;html=1;exitX=1;exitY=0.5;exitDx=0;exitDy=0;" edge="1" parent="1" source="UhGnseYafk5A4zhblU-_-41">
          <mxGeometry relative="1" as="geometry">
            <mxPoint x="1110" y="420" as="targetPoint" />
          </mxGeometry>
        </mxCell>
        <mxCell id="UhGnseYafk5A4zhblU-_-41" value="Service N" style="rounded=1;whiteSpace=wrap;html=1;" vertex="1" parent="1">
          <mxGeometry x="910" y="540" width="120" height="60" as="geometry" />
        </mxCell>
        <mxCell id="UhGnseYafk5A4zhblU-_-42" value="&lt;font style=&quot;font-size: 60px;&quot;&gt;. . .&lt;/font&gt;" style="text;html=1;align=center;verticalAlign=middle;resizable=0;points=[];autosize=1;strokeColor=none;fillColor=none;rotation=90;fontSize=60;" vertex="1" parent="1">
          <mxGeometry x="940" y="432.57" width="110" height="90" as="geometry" />
        </mxCell>
        <mxCell id="UhGnseYafk5A4zhblU-_-44" style="rounded=0;orthogonalLoop=1;jettySize=auto;html=1;exitX=1;exitY=0.5;exitDx=0;exitDy=0;entryX=0;entryY=0.5;entryDx=0;entryDy=0;entryPerimeter=0;" edge="1" parent="1" source="UhGnseYafk5A4zhblU-_-9" target="UhGnseYafk5A4zhblU-_-11">
          <mxGeometry relative="1" as="geometry">
            <mxPoint x="1320" y="200" as="targetPoint" />
            <mxPoint x="1250" y="383.25" as="sourcePoint" />
          </mxGeometry>
        </mxCell>
        <mxCell id="UhGnseYafk5A4zhblU-_-45" style="rounded=0;orthogonalLoop=1;jettySize=auto;html=1;exitX=1;exitY=0.5;exitDx=0;exitDy=0;entryX=0;entryY=0.5;entryDx=0;entryDy=0;entryPerimeter=0;" edge="1" parent="1" source="UhGnseYafk5A4zhblU-_-9" target="AeUnnbuYNQwcfc2Jq3Y8-2">
          <mxGeometry relative="1" as="geometry">
            <mxPoint x="1210" y="383" as="sourcePoint" />
            <mxPoint x="1320" y="290" as="targetPoint" />
          </mxGeometry>
        </mxCell>
        <mxCell id="UhGnseYafk5A4zhblU-_-46" style="rounded=0;orthogonalLoop=1;jettySize=auto;html=1;exitX=1;exitY=0.5;exitDx=0;exitDy=0;entryX=0;entryY=0.5;entryDx=0;entryDy=0;entryPerimeter=0;" edge="1" parent="1" source="UhGnseYafk5A4zhblU-_-9" target="AeUnnbuYNQwcfc2Jq3Y8-4">
          <mxGeometry relative="1" as="geometry">
            <mxPoint x="1210" y="383" as="sourcePoint" />
            <mxPoint x="1320" y="400" as="targetPoint" />
          </mxGeometry>
        </mxCell>
        <mxCell id="UhGnseYafk5A4zhblU-_-47" style="rounded=0;orthogonalLoop=1;jettySize=auto;html=1;exitX=1;exitY=0.5;exitDx=0;exitDy=0;" edge="1" parent="1" source="UhGnseYafk5A4zhblU-_-9">
          <mxGeometry relative="1" as="geometry">
            <mxPoint x="1250" y="383.25" as="sourcePoint" />
            <mxPoint x="1320" y="600" as="targetPoint" />
          </mxGeometry>
        </mxCell>
        <mxCell id="UhGnseYafk5A4zhblU-_-52" value="" style="group" connectable="0" vertex="1" parent="1">
          <mxGeometry x="1500" y="137.5" width="80" height="85" as="geometry" />
        </mxCell>
        <mxCell id="UhGnseYafk5A4zhblU-_-50" value="" style="rounded=1;whiteSpace=wrap;html=1;dashed=1;" vertex="1" parent="UhGnseYafk5A4zhblU-_-52">
          <mxGeometry width="80" height="85" as="geometry" />
        </mxCell>
        <mxCell id="UhGnseYafk5A4zhblU-_-49" value="" style="sketch=0;pointerEvents=1;shadow=0;dashed=1;html=1;strokeColor=none;fillColor=#505050;labelPosition=center;verticalLabelPosition=bottom;verticalAlign=top;outlineConnect=0;align=center;shape=mxgraph.office.servers.server_farm;fillColor=#7FBA42;" vertex="1" parent="UhGnseYafk5A4zhblU-_-52">
          <mxGeometry x="12" y="6.210000000000008" width="56" height="49" as="geometry" />
        </mxCell>
        <mxCell id="UhGnseYafk5A4zhblU-_-51" value="Worker" style="text;html=1;align=center;verticalAlign=middle;resizable=0;points=[];autosize=1;strokeColor=none;fillColor=none;" vertex="1" parent="UhGnseYafk5A4zhblU-_-52">
          <mxGeometry x="10" y="55" width="60" height="30" as="geometry" />
        </mxCell>
        <mxCell id="UhGnseYafk5A4zhblU-_-53" value="" style="group" connectable="0" vertex="1" parent="1">
          <mxGeometry x="1500" y="283.25" width="80" height="85" as="geometry" />
        </mxCell>
        <mxCell id="UhGnseYafk5A4zhblU-_-54" value="" style="rounded=1;whiteSpace=wrap;html=1;dashed=1;" vertex="1" parent="UhGnseYafk5A4zhblU-_-53">
          <mxGeometry width="80" height="85" as="geometry" />
        </mxCell>
        <mxCell id="UhGnseYafk5A4zhblU-_-55" value="" style="sketch=0;pointerEvents=1;shadow=0;dashed=1;html=1;strokeColor=none;fillColor=#505050;labelPosition=center;verticalLabelPosition=bottom;verticalAlign=top;outlineConnect=0;align=center;shape=mxgraph.office.servers.server_farm;fillColor=#7FBA42;" vertex="1" parent="UhGnseYafk5A4zhblU-_-53">
          <mxGeometry x="12" y="6.210000000000008" width="56" height="49" as="geometry" />
        </mxCell>
        <mxCell id="UhGnseYafk5A4zhblU-_-56" value="Worker" style="text;html=1;align=center;verticalAlign=middle;resizable=0;points=[];autosize=1;strokeColor=none;fillColor=none;" vertex="1" parent="UhGnseYafk5A4zhblU-_-53">
          <mxGeometry x="10" y="55" width="60" height="30" as="geometry" />
        </mxCell>
        <mxCell id="UhGnseYafk5A4zhblU-_-57" value="" style="group" connectable="0" vertex="1" parent="1">
          <mxGeometry x="1500" y="430" width="80" height="85" as="geometry" />
        </mxCell>
        <mxCell id="UhGnseYafk5A4zhblU-_-58" value="" style="rounded=1;whiteSpace=wrap;html=1;dashed=1;" vertex="1" parent="UhGnseYafk5A4zhblU-_-57">
          <mxGeometry width="80" height="85" as="geometry" />
        </mxCell>
        <mxCell id="UhGnseYafk5A4zhblU-_-59" value="" style="sketch=0;pointerEvents=1;shadow=0;dashed=1;html=1;strokeColor=none;fillColor=#505050;labelPosition=center;verticalLabelPosition=bottom;verticalAlign=top;outlineConnect=0;align=center;shape=mxgraph.office.servers.server_farm;fillColor=#7FBA42;" vertex="1" parent="UhGnseYafk5A4zhblU-_-57">
          <mxGeometry x="12" y="6.210000000000008" width="56" height="49" as="geometry" />
        </mxCell>
        <mxCell id="UhGnseYafk5A4zhblU-_-60" value="Worker" style="text;html=1;align=center;verticalAlign=middle;resizable=0;points=[];autosize=1;strokeColor=none;fillColor=none;" vertex="1" parent="UhGnseYafk5A4zhblU-_-57">
          <mxGeometry x="10" y="55" width="60" height="30" as="geometry" />
        </mxCell>
        <mxCell id="UhGnseYafk5A4zhblU-_-62" value="" style="group" connectable="0" vertex="1" parent="1">
          <mxGeometry x="1500" y="570" width="80" height="85" as="geometry" />
        </mxCell>
        <mxCell id="UhGnseYafk5A4zhblU-_-63" value="" style="rounded=1;whiteSpace=wrap;html=1;dashed=1;" vertex="1" parent="UhGnseYafk5A4zhblU-_-62">
          <mxGeometry width="80" height="85" as="geometry" />
        </mxCell>
        <mxCell id="UhGnseYafk5A4zhblU-_-64" value="" style="sketch=0;pointerEvents=1;shadow=0;dashed=1;html=1;strokeColor=none;fillColor=#505050;labelPosition=center;verticalLabelPosition=bottom;verticalAlign=top;outlineConnect=0;align=center;shape=mxgraph.office.servers.server_farm;fillColor=#7FBA42;" vertex="1" parent="UhGnseYafk5A4zhblU-_-62">
          <mxGeometry x="12" y="6.210000000000008" width="56" height="49" as="geometry" />
        </mxCell>
        <mxCell id="UhGnseYafk5A4zhblU-_-65" value="Worker" style="text;html=1;align=center;verticalAlign=middle;resizable=0;points=[];autosize=1;strokeColor=none;fillColor=none;" vertex="1" parent="UhGnseYafk5A4zhblU-_-62">
          <mxGeometry x="10" y="55" width="60" height="30" as="geometry" />
        </mxCell>
        <mxCell id="AeUnnbuYNQwcfc2Jq3Y8-3" style="edgeStyle=orthogonalEdgeStyle;rounded=0;orthogonalLoop=1;jettySize=auto;html=1;exitX=1;exitY=0.51;exitDx=0;exitDy=0;exitPerimeter=0;entryX=0;entryY=0.5;entryDx=0;entryDy=0;" edge="1" parent="1" source="AeUnnbuYNQwcfc2Jq3Y8-2" target="UhGnseYafk5A4zhblU-_-54">
          <mxGeometry relative="1" as="geometry" />
        </mxCell>
        <mxCell id="AeUnnbuYNQwcfc2Jq3Y8-2" value="Android queue" style="verticalLabelPosition=bottom;html=1;verticalAlign=top;align=center;strokeColor=none;fillColor=#00BEF2;shape=mxgraph.azure.queue_generic;pointerEvents=1;" vertex="1" parent="1">
          <mxGeometry x="1320" y="307.75" width="120" height="36" as="geometry" />
        </mxCell>
        <mxCell id="AeUnnbuYNQwcfc2Jq3Y8-5" style="edgeStyle=orthogonalEdgeStyle;rounded=0;orthogonalLoop=1;jettySize=auto;html=1;exitX=1;exitY=0.51;exitDx=0;exitDy=0;exitPerimeter=0;entryX=0;entryY=0.5;entryDx=0;entryDy=0;" edge="1" parent="1" source="AeUnnbuYNQwcfc2Jq3Y8-4" target="UhGnseYafk5A4zhblU-_-58">
          <mxGeometry relative="1" as="geometry" />
        </mxCell>
        <mxCell id="AeUnnbuYNQwcfc2Jq3Y8-4" value="SMS queue" style="verticalLabelPosition=bottom;html=1;verticalAlign=top;align=center;strokeColor=none;fillColor=#00BEF2;shape=mxgraph.azure.queue_generic;pointerEvents=1;" vertex="1" parent="1">
          <mxGeometry x="1320" y="454.5" width="120" height="36" as="geometry" />
        </mxCell>
        <mxCell id="AeUnnbuYNQwcfc2Jq3Y8-7" style="edgeStyle=orthogonalEdgeStyle;rounded=0;orthogonalLoop=1;jettySize=auto;html=1;exitX=1;exitY=0.51;exitDx=0;exitDy=0;exitPerimeter=0;entryX=0;entryY=0.5;entryDx=0;entryDy=0;" edge="1" parent="1" source="AeUnnbuYNQwcfc2Jq3Y8-6" target="UhGnseYafk5A4zhblU-_-63">
          <mxGeometry relative="1" as="geometry" />
        </mxCell>
        <mxCell id="AeUnnbuYNQwcfc2Jq3Y8-6" value="Email queue" style="verticalLabelPosition=bottom;html=1;verticalAlign=top;align=center;strokeColor=none;fillColor=#00BEF2;shape=mxgraph.azure.queue_generic;pointerEvents=1;" vertex="1" parent="1">
          <mxGeometry x="1320" y="594" width="120" height="36" as="geometry" />
        </mxCell>
        <mxCell id="AeUnnbuYNQwcfc2Jq3Y8-8" style="edgeStyle=orthogonalEdgeStyle;rounded=0;orthogonalLoop=1;jettySize=auto;html=1;exitX=1;exitY=0.5;exitDx=0;exitDy=0;entryX=-0.007;entryY=0.066;entryDx=0;entryDy=0;entryPerimeter=0;" edge="1" parent="1" source="UhGnseYafk5A4zhblU-_-50" target="UhGnseYafk5A4zhblU-_-14">
          <mxGeometry relative="1" as="geometry" />
        </mxCell>
        <mxCell id="AeUnnbuYNQwcfc2Jq3Y8-9" style="edgeStyle=orthogonalEdgeStyle;rounded=0;orthogonalLoop=1;jettySize=auto;html=1;exitX=1;exitY=0.5;exitDx=0;exitDy=0;entryX=0;entryY=0.3;entryDx=0;entryDy=0;entryPerimeter=0;" edge="1" parent="1" source="UhGnseYafk5A4zhblU-_-54" target="UhGnseYafk5A4zhblU-_-14">
          <mxGeometry relative="1" as="geometry" />
        </mxCell>
        <mxCell id="AeUnnbuYNQwcfc2Jq3Y8-10" style="edgeStyle=orthogonalEdgeStyle;rounded=0;orthogonalLoop=1;jettySize=auto;html=1;exitX=1;exitY=0.5;exitDx=0;exitDy=0;entryX=0.014;entryY=0.535;entryDx=0;entryDy=0;entryPerimeter=0;" edge="1" parent="1" source="UhGnseYafk5A4zhblU-_-58" target="UhGnseYafk5A4zhblU-_-14">
          <mxGeometry relative="1" as="geometry" />
        </mxCell>
        <mxCell id="AeUnnbuYNQwcfc2Jq3Y8-11" style="edgeStyle=orthogonalEdgeStyle;rounded=0;orthogonalLoop=1;jettySize=auto;html=1;exitX=1;exitY=0.5;exitDx=0;exitDy=0;entryX=0.007;entryY=0.763;entryDx=0;entryDy=0;entryPerimeter=0;" edge="1" parent="1" source="UhGnseYafk5A4zhblU-_-63" target="UhGnseYafk5A4zhblU-_-14">
          <mxGeometry relative="1" as="geometry" />
        </mxCell>
        <mxCell id="AeUnnbuYNQwcfc2Jq3Y8-13" style="edgeStyle=orthogonalEdgeStyle;rounded=0;orthogonalLoop=1;jettySize=auto;html=1;exitX=0.5;exitY=0;exitDx=0;exitDy=0;entryX=0.5;entryY=0;entryDx=0;entryDy=0;entryPerimeter=0;" edge="1" parent="1" source="UhGnseYafk5A4zhblU-_-50" target="UhGnseYafk5A4zhblU-_-11">
          <mxGeometry relative="1" as="geometry">
            <Array as="points">
              <mxPoint x="1540" y="110" />
              <mxPoint x="1380" y="110" />
            </Array>
          </mxGeometry>
        </mxCell>
        <mxCell id="AeUnnbuYNQwcfc2Jq3Y8-14" value="Retry on error" style="text;html=1;align=center;verticalAlign=middle;resizable=0;points=[];autosize=1;strokeColor=none;fillColor=none;" vertex="1" parent="1">
          <mxGeometry x="1410" y="80" width="100" height="30" as="geometry" />
        </mxCell>
        <mxCell id="AeUnnbuYNQwcfc2Jq3Y8-30" value="" style="group" connectable="0" vertex="1" parent="1">
          <mxGeometry x="1115" y="482.4" width="80" height="82.43" as="geometry" />
        </mxCell>
        <mxCell id="AeUnnbuYNQwcfc2Jq3Y8-26" value="" style="rounded=1;whiteSpace=wrap;html=1;strokeColor=#6666FF;" vertex="1" parent="AeUnnbuYNQwcfc2Jq3Y8-30">
          <mxGeometry width="80" height="82.43" as="geometry" />
        </mxCell>
        <mxCell id="AeUnnbuYNQwcfc2Jq3Y8-27" value="" style="outlineConnect=0;dashed=0;verticalLabelPosition=bottom;verticalAlign=top;align=center;html=1;shape=mxgraph.aws3.cache_node;fillColor=#2E73B8;gradientColor=none;" vertex="1" parent="AeUnnbuYNQwcfc2Jq3Y8-30">
          <mxGeometry x="9.411764705882353" y="8.765056666666661" width="28.235294117647058" height="30.224333333333337" as="geometry" />
        </mxCell>
        <mxCell id="AeUnnbuYNQwcfc2Jq3Y8-57" value="" style="outlineConnect=0;dashed=0;verticalLabelPosition=bottom;verticalAlign=top;align=center;html=1;shape=mxgraph.aws3.cache_node;fillColor=#2E73B8;gradientColor=none;" vertex="1" parent="AeUnnbuYNQwcfc2Jq3Y8-30">
          <mxGeometry x="25.88235294117647" y="26.102833333333336" width="28.235294117647058" height="30.224333333333337" as="geometry" />
        </mxCell>
        <mxCell id="AeUnnbuYNQwcfc2Jq3Y8-58" value="" style="outlineConnect=0;dashed=0;verticalLabelPosition=bottom;verticalAlign=top;align=center;html=1;shape=mxgraph.aws3.cache_node;fillColor=#2E73B8;gradientColor=none;" vertex="1" parent="AeUnnbuYNQwcfc2Jq3Y8-30">
          <mxGeometry x="47.05882352941176" y="38.98939" width="28.235294117647058" height="30.224333333333337" as="geometry" />
        </mxCell>
        <mxCell id="AeUnnbuYNQwcfc2Jq3Y8-66" value="" style="group;movable=1;resizable=1;rotatable=1;deletable=1;editable=1;locked=0;connectable=1;" connectable="0" vertex="1" parent="1">
          <mxGeometry x="1115" y="619.9999999999999" width="80" height="82.43" as="geometry" />
        </mxCell>
        <mxCell id="AeUnnbuYNQwcfc2Jq3Y8-67" value="" style="rounded=1;whiteSpace=wrap;html=1;strokeColor=#6666FF;movable=1;resizable=1;rotatable=1;deletable=1;editable=1;locked=0;connectable=1;" vertex="1" parent="AeUnnbuYNQwcfc2Jq3Y8-66">
          <mxGeometry width="80" height="82.43" as="geometry" />
        </mxCell>
        <mxCell id="AeUnnbuYNQwcfc2Jq3Y8-65" value="" style="sketch=0;shadow=0;dashed=0;html=1;strokeColor=none;fillColor=#6666FF;labelPosition=center;verticalLabelPosition=bottom;verticalAlign=top;outlineConnect=0;align=center;shape=mxgraph.office.databases.database_availability_group;movable=1;resizable=1;rotatable=1;deletable=1;editable=1;locked=0;connectable=1;" vertex="1" parent="AeUnnbuYNQwcfc2Jq3Y8-66">
          <mxGeometry x="11.910000000000082" y="10.5" width="59" height="59" as="geometry" />
        </mxCell>
        <mxCell id="AeUnnbuYNQwcfc2Jq3Y8-72" style="edgeStyle=orthogonalEdgeStyle;rounded=0;orthogonalLoop=1;jettySize=auto;html=1;exitX=0.5;exitY=1;exitDx=0;exitDy=0;entryX=0.5;entryY=0;entryDx=0;entryDy=0;" edge="1" parent="1" source="AeUnnbuYNQwcfc2Jq3Y8-26" target="AeUnnbuYNQwcfc2Jq3Y8-67">
          <mxGeometry relative="1" as="geometry" />
        </mxCell>
        <mxCell id="AeUnnbuYNQwcfc2Jq3Y8-73" value="Database" style="text;html=1;align=center;verticalAlign=middle;resizable=0;points=[];autosize=1;strokeColor=none;fillColor=none;" vertex="1" parent="1">
          <mxGeometry x="1125" y="698" width="70" height="30" as="geometry" />
        </mxCell>
      </root>
    </mxGraphModel>
  </diagram>
</mxfile>
